<svg width="18" height="20" viewBox="0 0 18 20" fill="none" xmlns="http://www.w3.org/2000/svg">
<path d="M17.947 6.30502C17.9369 5.54764 17.7951 4.79779 17.528 4.08902C17.2964 3.49117 16.9425 2.94822 16.4892 2.49485C16.0358 2.04148 15.4929 1.68767 14.895 1.45602C14.1953 1.19338 13.4562 1.05136 12.709 1.03602C11.747 0.993018 11.442 0.981018 9.00001 0.981018C6.55801 0.981018 6.24501 0.981018 5.29001 1.03602C4.54317 1.05147 3.80436 1.19349 3.10501 1.45602C2.50707 1.68751 1.96403 2.04126 1.51064 2.49465C1.05725 2.94804 0.703498 3.49108 0.472009 4.08902C0.20884 4.78815 0.0671324 5.52713 0.0530093 6.27402C0.0100093 7.23702 -0.00299072 7.54202 -0.00299072 9.98402C-0.00299072 12.426 -0.00299073 12.738 0.0530093 13.694C0.0680093 14.442 0.209009 15.18 0.472009 15.881C0.703887 16.4788 1.05791 17.0216 1.51145 17.4748C1.96499 17.928 2.50807 18.2816 3.10601 18.513C3.80344 18.7862 4.54238 18.9384 5.29101 18.963C6.25401 19.006 6.55901 19.019 9.00101 19.019C11.443 19.019 11.756 19.019 12.711 18.963C13.4582 18.9483 14.1974 18.8066 14.897 18.544C15.4947 18.3121 16.0375 17.9582 16.4909 17.5049C16.9442 17.0515 17.2981 16.5087 17.53 15.911C17.793 15.211 17.934 14.473 17.949 13.724C17.992 12.762 18.005 12.457 18.005 10.014C18.003 7.57202 18.003 7.26202 17.947 6.30502ZM8.99401 14.602C6.44001 14.602 4.37101 12.533 4.37101 9.97902C4.37101 7.42502 6.44001 5.35602 8.99401 5.35602C10.2201 5.35602 11.396 5.84308 12.263 6.71006C13.1299 7.57704 13.617 8.75292 13.617 9.97902C13.617 11.2051 13.1299 12.381 12.263 13.248C11.396 14.115 10.2201 14.602 8.99401 14.602ZM13.801 6.26302C13.204 6.26302 12.723 5.78102 12.723 5.18502C12.723 5.04352 12.7509 4.90341 12.805 4.77268C12.8592 4.64195 12.9385 4.52317 13.0386 4.42311C13.1387 4.32306 13.2574 4.24369 13.3882 4.18954C13.5189 4.13539 13.659 4.10752 13.8005 4.10752C13.942 4.10752 14.0821 4.13539 14.2129 4.18954C14.3436 4.24369 14.4624 4.32306 14.5624 4.42311C14.6625 4.52317 14.7418 4.64195 14.796 4.77268C14.8501 4.90341 14.878 5.04352 14.878 5.18502C14.878 5.78102 14.396 6.26302 13.801 6.26302Z" fill="#C98A40"/>
</svg>
