<svg width="20" height="16" viewBox="0 0 20 16" fill="none" xmlns="http://www.w3.org/2000/svg">
<path d="M19.75 1.96017C19.0328 2.26954 18.2523 2.4922 17.4484 2.57892C18.2831 2.08306 18.9081 1.2997 19.2062 0.375791C18.423 0.841703 17.565 1.16841 16.6703 1.34142C16.2963 0.941634 15.8441 0.62315 15.3416 0.405808C14.8392 0.188467 14.2974 0.0769255 13.75 0.0781347C11.5351 0.0781347 9.7539 1.87345 9.7539 4.07657C9.7539 4.38595 9.7914 4.69532 9.85234 4.99298C6.53593 4.81954 3.57812 3.23517 1.61171 0.809385C1.25341 1.42137 1.06565 2.1182 1.06796 2.82735C1.06796 4.21485 1.77343 5.43829 2.84921 6.15782C2.21524 6.13285 1.59611 5.9586 1.04218 5.64923V5.69845C1.04218 7.64142 2.41562 9.25157 4.24609 9.62188C3.9024 9.71116 3.54884 9.75683 3.19374 9.75782C2.93359 9.75782 2.68749 9.73204 2.43906 9.69689C2.94531 11.2813 4.41952 12.432 6.17499 12.4695C4.80156 13.5453 3.08124 14.1781 1.21328 14.1781C0.878119 14.1781 0.568744 14.1664 0.24765 14.1289C2.01952 15.2656 4.12187 15.9219 6.38593 15.9219C13.7359 15.9219 17.7578 9.83282 17.7578 4.54767C17.7578 4.37423 17.7578 4.20079 17.7461 4.02735C18.5242 3.45782 19.2062 2.75235 19.75 1.96017Z" fill="#C98A40"/>
</svg>
